<?xml version="1.0" encoding="utf-8"?>
<!-- Generator: Adobe Illustrator 25.2.1, SVG Export Plug-In . SVG Version: 6.00 Build 0)  -->
<svg version="1.1" id="Layer_1" xmlns="http://www.w3.org/2000/svg" xmlns:xlink="http://www.w3.org/1999/xlink" x="0px" y="0px"
	 viewBox="0 0 910 13.65" style="enable-background:new 0 0 910 13.65;" xml:space="preserve">
<style type="text/css">
	.st0{fill:#FFFFFF;}
	.st1{fill:none;stroke:#000000;stroke-width:2;stroke-linecap:round;stroke-miterlimit:10;}
	.st2{fill:#BDBCBC;}
	.st3{fill:#878787;}
</style>
<g>
	<line class="st0" x1="0" y1="6.82" x2="910" y2="6.82"/>
	<g>
		<line class="st1" x1="7.77" y1="6.82" x2="902.23" y2="6.82"/>
		<g>
			<g>
				<path class="st2" d="M7.17,6.82C4.54,5.03,2.33,2.65,0.62,0h12.55c1.69,2.85,4.31,5.08,7.1,6.82H7.17z"/>
				<path class="st3" d="M20.27,6.82c-2.82,1.71-5.33,4.03-7.1,6.83H0.65c1.77-2.71,3.9-5.06,6.52-6.83H20.27z"/>
				<path d="M13.9,0c1.69,2.85,4.31,5.08,7.1,6.82c-2.82,1.71-5.33,4.03-7.1,6.83h-1.68c1.77-2.71,3.9-5.06,6.52-6.83
					C16.11,5.03,13.9,2.65,12.19,0H13.9z"/>
				<path d="M9.84,0c1.68,2.85,4.31,5.08,7.1,6.82c-2.82,1.71-5.33,4.03-7.1,6.83H8.15c1.77-2.71,3.9-5.06,6.52-6.83
					C12.05,5.03,9.84,2.65,8.13,0H9.84z"/>
				<path d="M5.78,0c1.69,2.85,4.31,5.08,7.1,6.82c-2.82,1.71-5.33,4.03-7.1,6.83H4.09c1.77-2.71,3.9-5.06,6.52-6.83
					C7.99,5.03,5.78,2.65,4.06,0H5.78z"/>
				<path d="M1.71,0c1.68,2.85,4.31,5.08,7.1,6.82c-2.82,1.71-5.33,4.03-7.1,6.83H0.03c1.77-2.71,3.89-5.06,6.52-6.83
					C3.92,5.03,1.71,2.65,0,0H1.71z"/>
			</g>
		</g>
		<g>
			<g>
				<path class="st3" d="M902.83,6.82c2.62-1.8,4.84-4.17,6.55-6.82h-12.55c-1.69,2.85-4.31,5.08-7.1,6.82H902.83z"/>
				<path class="st2" d="M889.73,6.82c2.82,1.71,5.33,4.03,7.1,6.83h12.52c-1.77-2.71-3.9-5.06-6.52-6.83H889.73z"/>
				<path d="M896.1,0c-1.69,2.85-4.31,5.08-7.1,6.82c2.82,1.71,5.33,4.03,7.1,6.83h1.68c-1.77-2.71-3.9-5.06-6.52-6.83
					c2.63-1.8,4.84-4.17,6.55-6.82H896.1z"/>
				<path d="M900.16,0c-1.68,2.85-4.31,5.08-7.1,6.82c2.82,1.71,5.33,4.03,7.1,6.83h1.68c-1.77-2.71-3.89-5.06-6.52-6.83
					c2.63-1.8,4.84-4.17,6.55-6.82H900.16z"/>
				<path d="M904.22,0c-1.69,2.85-4.31,5.08-7.1,6.82c2.82,1.71,5.33,4.03,7.1,6.83h1.68c-1.77-2.71-3.89-5.06-6.52-6.83
					c2.63-1.8,4.84-4.17,6.55-6.82H904.22z"/>
				<path d="M908.29,0c-1.68,2.85-4.31,5.08-7.1,6.82c2.82,1.71,5.33,4.03,7.1,6.83h1.69c-1.77-2.71-3.89-5.06-6.52-6.83
					c2.63-1.8,4.84-4.17,6.55-6.82H908.29z"/>
			</g>
		</g>
	</g>
</g>
</svg>
