<svg id="Layer_1" data-name="Layer 1" xmlns="http://www.w3.org/2000/svg" viewBox="0 0 468.78 371.59"><defs><style>.cls-1{fill:#f5f1ad;}.cls-2{fill:#fff;stroke-width:3px;}.cls-2,.cls-3,.cls-6,.cls-8{stroke:#1d1d1b;stroke-miterlimit:10;}.cls-3,.cls-5{fill:#007d90;}.cls-3,.cls-6,.cls-8{stroke-width:4px;}.cls-4{fill:#1d1d1b;}.cls-6,.cls-7{fill:#c6e5e6;}.cls-8,.cls-9{fill:#2eb5ad;}</style></defs><circle class="cls-1" cx="235.88" cy="186.6" r="164.67"/><line class="cls-2" x1="53.51" y1="176.35" x2="138.85" y2="91"/><line class="cls-2" x1="171.44" y1="92.4" x2="254.02" y2="174.99"/><line class="cls-2" x1="179.26" y1="87.69" x2="418.26" y2="182.36"/><line class="cls-2" x1="418.26" y1="174.99" x2="332.92" y2="89.65"/><line class="cls-2" x1="300.33" y1="91.05" x2="217.75" y2="173.64"/><line class="cls-2" x1="292.51" y1="86.34" x2="53.51" y2="181.01"/><line class="cls-2" x1="53.51" y1="196.85" x2="138.85" y2="282.2"/><line class="cls-2" x1="171.44" y1="280.8" x2="254.02" y2="198.21"/><line class="cls-2" x1="179.26" y1="285.51" x2="418.26" y2="190.84"/><line class="cls-2" x1="418.26" y1="198.21" x2="332.92" y2="283.55"/><line class="cls-2" x1="300.33" y1="282.15" x2="217.75" y2="199.56"/><line class="cls-2" x1="292.51" y1="286.86" x2="53.51" y2="192.19"/><path class="cls-3" d="M297.36,287.33s-21.22-.48-28.08,19.31,10.7,28,10.7,28-3.54,17.44,7.72,28,20.36,7.82,32.49.76c0,0,17.28,7.95,28.26,4.51,7.95-2.48,9.43-13.17,9.43-13.17s16.25-2.18,14.32-27.55-19.64-22.76-19.64-22.76,7.09-13.53,1-23.24-29.05-29.87-47.05-6Z"/><path class="cls-3" d="M280,334.6c12.25-28.91,37.17-17.76,37.17-17.76s-3.75,3.22,1.74,8.26c0,0-16.53,17.86,1.3,38.25"/><path class="cls-4" d="M355.89,354.91a34.44,34.44,0,0,0-3.19-12.52,28.45,28.45,0,0,0-3.54-5.43,27.48,27.48,0,0,0-4.79-4.47,35.92,35.92,0,0,0-12-5.66,48.51,48.51,0,0,0-13.44-1.73,49.09,49.09,0,0,1,13.67.76,37.48,37.48,0,0,1,12.94,5,29.64,29.64,0,0,1,5.51,4.44,30.42,30.42,0,0,1,4.33,5.69,38,38,0,0,1,4.53,13.5Z"/><path class="cls-5" d="M352.56,304.38s-17,21.05-25.53,21"/><path class="cls-4" d="M354.12,305.63c-2,2.13-3.94,4.13-6,6.11s-4.15,3.88-6.33,5.7a64.12,64.12,0,0,1-6.85,5.07,27.3,27.3,0,0,1-3.79,2,9.88,9.88,0,0,1-4.13.9A9.75,9.75,0,0,0,331,324a27.29,27.29,0,0,0,3.42-2.35,61.66,61.66,0,0,0,6.06-5.71c1.91-2,3.73-4.13,5.5-6.28s3.47-4.37,5.07-6.58Z"/><path class="cls-4" d="M331.17,324.27a13.27,13.27,0,0,0,0-6.42,7.56,7.56,0,0,0-1.38-2.71,13.13,13.13,0,0,0-2.1-2.25,2.06,2.06,0,0,0-2.12-.35,8.44,8.44,0,0,0-2.42,1.43,43.61,43.61,0,0,0-4.61,4.35l-2.7-2.95a45.64,45.64,0,0,1,5.68-3.92,11.15,11.15,0,0,1,3.53-1.36,9.33,9.33,0,0,1,1.07-.06,4.63,4.63,0,0,1,1.11.21,4.54,4.54,0,0,1,1.79,1.15,14.46,14.46,0,0,1,2,2.9,8.85,8.85,0,0,1,1.12,3.36A13.8,13.8,0,0,1,331.17,324.27Z"/><path class="cls-5" d="M317,299.85a25.51,25.51,0,0,0-19.61-12.52"/><path class="cls-4" d="M317,299.85a26.13,26.13,0,0,0-4-4.47,22.32,22.32,0,0,0-4.84-3.31,24.1,24.1,0,0,0-5.39-2,24.9,24.9,0,0,0-2.79-.53,17.31,17.31,0,0,0-2.7-.17l.18-4a22.62,22.62,0,0,1,3.28.75,30.89,30.89,0,0,1,3,1.11,26.69,26.69,0,0,1,5.48,3.19,23.84,23.84,0,0,1,4.49,4.31A25.9,25.9,0,0,1,317,299.85Z"/><path class="cls-6" d="M117.61,26.18s-35,7-27.95,41.65,41.88,19.59,41.88,19.59,4.83,12.94,23.57,18.36,44.46-18.63,30.44-44.64c0,0,21.64-26.14-9.15-39.43,0,0-11-36-39.38-10.67C137,11,121.62,7.7,117.61,26.18Z"/><path class="cls-7" d="M117.61,26.18s39.94,7.19,16.42,56.2"/><path class="cls-4" d="M118,24.21a31.34,31.34,0,0,1,4.45,1.42,36.68,36.68,0,0,1,4.11,1.94A32.69,32.69,0,0,1,133.83,33a27.83,27.83,0,0,1,5.37,7.3,28.28,28.28,0,0,1,2.68,8.57,34.11,34.11,0,0,1,.2,8.85c-.08,1.47-.38,2.9-.6,4.35s-.63,2.85-1,4.26A85.42,85.42,0,0,1,134,82.38,85.11,85.11,0,0,0,139.52,66c.27-1.4.53-2.81.72-4.22s.35-2.83.34-4.25a32.24,32.24,0,0,0-.67-8.39A26,26,0,0,0,137,41.44a24.67,24.67,0,0,0-5.21-6.29,29.87,29.87,0,0,0-6.86-4.47,33.66,33.66,0,0,0-3.81-1.53,27.85,27.85,0,0,0-3.86-1Z"/><path class="cls-7" d="M185.55,61.14S173.42,67.71,154,56.76"/><path class="cls-4" d="M186.5,62.9a8.71,8.71,0,0,1-1.19.45,11.48,11.48,0,0,1-1.1.33,20.79,20.79,0,0,1-2.19.46,26.73,26.73,0,0,1-4.36.37,35.86,35.86,0,0,1-8.49-1l-2-.54c-.68-.19-1.33-.44-2-.66-1.34-.42-2.6-1-3.89-1.55s-2.48-1.25-3.72-1.86L154,56.76l3.77,1.68c1.29.45,2.56,1,3.86,1.37s2.6.81,3.94,1c.66.14,1.32.3,2,.41l2,.27a33.47,33.47,0,0,0,7.94,0,25.11,25.11,0,0,0,3.8-.79,17.12,17.12,0,0,0,1.79-.61c.28-.12.58-.23.84-.37a6,6,0,0,0,.7-.37Z"/><path class="cls-7" d="M137,11s22.89,5.09,15.62,26.72"/><path class="cls-4" d="M137.46,9.09a28.67,28.67,0,0,1,4.45,1.78,30.44,30.44,0,0,1,4,2.41,21.4,21.4,0,0,1,6.38,6.84,17.65,17.65,0,0,1,1.73,4.34,18.07,18.07,0,0,1,.5,4.56,25.35,25.35,0,0,1-1.91,8.74,24.8,24.8,0,0,0,.91-8.7,15.77,15.77,0,0,0-2.92-7.86,18.93,18.93,0,0,0-6.3-5.39,26.6,26.6,0,0,0-3.81-1.72,25,25,0,0,0-3.93-1.1Z"/><path class="cls-8" d="M463.06,211.92s17-34-21.7-37.55c0,0-2.71-30-29.54-22.15,0,0-5.77-9-12.45-6.76,0,0-9.17-16.08-17-10.4,0,0-5.32-6.82-10.75-1.33s-5.5,11.9-2.21,19.9c0,0-12.76,5.3,0,15.65,0,0-14.69,15.27,11.09,29.37,0,0,.17,16.76,9,26.74,9.09,10.23,18.86,14.42,38.63-3.54C428.14,221.85,447.46,238.61,463.06,211.92Z"/><path class="cls-9" d="M441.36,174.37s-18.45-.24-24.85,13.2,4.83,26.22,4.83,26.22"/><path class="cls-4" d="M441.33,176.37a27.42,27.42,0,0,0-3.35.11q-.86.06-1.71.18c-.57.06-1.14.16-1.7.26a32.53,32.53,0,0,0-6.6,1.87,24.74,24.74,0,0,0-5.86,3.43c-.43.36-.83.77-1.25,1.15-.2.2-.42.38-.61.59l-.54.65c-.35.45-.74.87-1.07,1.33l-.89,1.46a7.83,7.83,0,0,0-.77,1.53c-.23.53-.49,1-.68,1.59a20.25,20.25,0,0,0-.83,3.35,21.22,21.22,0,0,0-.28,3.48,26,26,0,0,0,.36,3.5,30.41,30.41,0,0,0,5.79,12.94,31,31,0,0,1-6.77-12.74,25.87,25.87,0,0,1-.63-3.64,23.12,23.12,0,0,1,0-3.72,22.23,22.23,0,0,1,.65-3.7c.17-.6.41-1.18.61-1.78a10.22,10.22,0,0,1,.74-1.74l.88-1.68c.32-.54.72-1,1.08-1.57l.56-.78c.2-.24.43-.47.64-.7.43-.47.86-1,1.31-1.39a27.76,27.76,0,0,1,6.28-4.3,36,36,0,0,1,7.1-2.55c.61-.16,1.23-.3,1.85-.42s1.23-.24,1.86-.33a32.85,32.85,0,0,1,3.84-.38Z"/><path class="cls-4" d="M418.12,183.69A58.42,58.42,0,0,0,406,177.56a26.37,26.37,0,0,0-6.5-1.38,14.78,14.78,0,0,0-6.33.82,12.52,12.52,0,0,0-5,3.6,19.29,19.29,0,0,0-3.24,5.45,31.62,31.62,0,0,0-1.78,6.24,38.56,38.56,0,0,0-.67,6.42l-4-.13a43.37,43.37,0,0,1,1.25-7.06,35.21,35.21,0,0,1,2.46-6.7,22.51,22.51,0,0,1,4.16-5.94,14.79,14.79,0,0,1,6.23-3.78,16.59,16.59,0,0,1,7.13-.41,27.44,27.44,0,0,1,6.7,1.94A58.69,58.69,0,0,1,418.12,183.69Z"/><path class="cls-9" d="M411.82,152.22a21.12,21.12,0,0,0-14.5,11.31"/><path class="cls-4" d="M412.14,154.19a14.63,14.63,0,0,0-2.05.31c-.71.16-1.42.36-2.13.59a20.46,20.46,0,0,0-4.08,1.91,18.57,18.57,0,0,0-3.62,2.84,21.66,21.66,0,0,0-2.94,3.69,21.58,21.58,0,0,1,2.17-4.32,19.7,19.7,0,0,1,3.17-3.79,22,22,0,0,1,4-3c.73-.43,1.49-.83,2.27-1.19a17.32,17.32,0,0,1,2.54-.95Z"/><path class="cls-9" d="M369.42,153.63s12.21-2.63,15.67,4"/><path class="cls-4" d="M369,151.67a28.69,28.69,0,0,1,4.63,0,23.84,23.84,0,0,1,4.5.72,12.78,12.78,0,0,1,4.17,1.84,7.84,7.84,0,0,1,2.79,3.4,7.37,7.37,0,0,0-3.27-2.53,11.55,11.55,0,0,0-4-.73,20.71,20.71,0,0,0-4.08.3,25.69,25.69,0,0,0-3.91.94Z"/><path class="cls-8" d="M17.43,147.87s9-19.29,30.68-15.77S94.42,150.38,83.3,174c0,0,28,1.21,20.41,32.88S64,241,64,241s-35.29,6.31-49.95-25.75c0,0-15.35-16.2-11.41-34.14,0,0,.55-4.22,1.82-6.3S1.52,155.89,17.43,147.87Z"/><path class="cls-9" d="M83.3,174S80.23,184.13,64,189.35"/><path class="cls-4" d="M85.21,174.54a8.73,8.73,0,0,1-.42.93c-.14.29-.3.54-.45.8-.31.5-.62,1-1,1.46a22.31,22.31,0,0,1-2.22,2.61A29.27,29.27,0,0,1,76,184.49a36.36,36.36,0,0,1-5.81,2.93c-1,.42-2,.72-3,1.08l-3.09.85,2.9-1.31c.93-.51,1.88-1,2.78-1.51a36.11,36.11,0,0,0,5.06-3.64,27,27,0,0,0,4.09-4.49,19.31,19.31,0,0,0,1.54-2.52,13.69,13.69,0,0,0,.59-1.3c.08-.22.18-.44.24-.65a3.6,3.6,0,0,0,.15-.54Z"/><path class="cls-9" d="M17.43,147.87s-.73,23.43,13.36,29.51"/><path class="cls-4" d="M19.42,147.93a51.47,51.47,0,0,0,.12,8.22,42.76,42.76,0,0,0,1.51,8.17,26.13,26.13,0,0,0,3.48,7.52A19.24,19.24,0,0,0,27.29,175a17.6,17.6,0,0,0,3.5,2.39,18.49,18.49,0,0,1-3.81-2,19.39,19.39,0,0,1-3.23-2.92A27.1,27.1,0,0,1,19.17,165a45.77,45.77,0,0,1-2.6-8.39,54,54,0,0,1-1.14-8.81Z"/><path class="cls-9" d="M21.47,167.87s-19.8,6.53-10.93,26.47"/><path class="cls-4" d="M22.09,169.77a20.51,20.51,0,0,0-3.44,1.37,21.68,21.68,0,0,0-3.26,2,16.34,16.34,0,0,0-5,5.71,15.39,15.39,0,0,0-1.58,7.59,25.4,25.4,0,0,0,1.69,7.91,25.78,25.78,0,0,1-2.68-7.82,16.78,16.78,0,0,1,.73-8.46,18.76,18.76,0,0,1,4.86-7.22,25.68,25.68,0,0,1,3.43-2.73,23.24,23.24,0,0,1,4-2.13Z"/><path class="cls-9" d="M21.52,215.55s5,5.91,17.5,1.26a79.13,79.13,0,0,0,20.6-11.33A23.51,23.51,0,0,0,64,201.23c2.53-3.56,4.06-6.41,2.66-8.86"/><path class="cls-4" d="M21.52,215.55a12,12,0,0,0,6.63,1.94,22.2,22.2,0,0,0,6.71-1.06,52.6,52.6,0,0,0,6.46-2.57q3.23-1.46,6.36-3.11a99,99,0,0,0,12-7.36,30.06,30.06,0,0,0,2.65-2.17,23.52,23.52,0,0,0,2.25-2.6,14.36,14.36,0,0,0,1.86-2.89,4.41,4.41,0,0,0,.23-3.36,4,4,0,0,1,.82,1.7,5.86,5.86,0,0,1,0,2,13.56,13.56,0,0,1-1.25,3.63c-.28.57-.59,1.11-.89,1.65A14.72,14.72,0,0,1,64.32,203a24.24,24.24,0,0,1-2.59,2.83,55.67,55.67,0,0,1-12.19,8.49,62.09,62.09,0,0,1-6.75,3.07c-1.16.44-2.31.87-3.51,1.23l-1.84.52c-.61.16-1.25.26-1.87.39a20.45,20.45,0,0,1-7.68-.06,14.56,14.56,0,0,1-3.58-1.4A8.44,8.44,0,0,1,21.52,215.55Z"/><path class="cls-4" d="M61.41,204.59c0-.07,0,0,0,.09l.11.19a2.28,2.28,0,0,0,.29.33,1.89,1.89,0,0,0,.74.46,3.76,3.76,0,0,0,2.34-.17,59.81,59.81,0,0,0,6.1-2.4,25.64,25.64,0,0,0,5.58-3.32,6.35,6.35,0,0,0,2-2.45,2.69,2.69,0,0,0,.12-1.54,3.86,3.86,0,0,0-.78-1.43,3.81,3.81,0,0,1,1,1.36,3,3,0,0,1,.13,1.75,7.09,7.09,0,0,1-1.74,3,27.54,27.54,0,0,1-5.3,4.35,63.16,63.16,0,0,1-5.92,3.42,7.07,7.07,0,0,1-4.17.84,5.82,5.82,0,0,1-2.29-.87,5.92,5.92,0,0,1-.95-.77c-.14-.15-.28-.3-.42-.47a5.52,5.52,0,0,1-.42-.61Z"/><path class="cls-6" d="M301.23,33.41s.63-27.57,25-26.94l14.16,1.92S358.73,7.62,362.55,25c0,0,14.4,17.45,7.69,32,0,0-2.35,43.22-40.15,41.76,0,0-45.52,15.49-58.62-20.56S297.47,29.26,301.23,33.41Z"/><path class="cls-7" d="M300.66,38.38c-.51-1.43-33.73,3-22.57,36s47.2,17.56,47.2,17.56c39.8,2.38,36.58-34.48,36.58-34.48,6.8-18.17-4.89-28.33-4.89-28.33s-9.9,11.22-25.42,10.75"/><path class="cls-4" d="M300.66,38.38c-.2-.2-.53-.17-.79-.19a7.89,7.89,0,0,0-.84.05,15.67,15.67,0,0,0-1.67.26,25.83,25.83,0,0,0-3.24.88A30.67,30.67,0,0,0,288,42.15a22.56,22.56,0,0,0-8.93,9.37,23.18,23.18,0,0,0-2,12.63,44,44,0,0,0,3.46,12.6A29.91,29.91,0,0,0,288,87.16a24.78,24.78,0,0,0,11.17,5.65,38.25,38.25,0,0,0,12.82.47,51.68,51.68,0,0,0,6.41-1.2,48.6,48.6,0,0,0,6.15-2l.44-.18.46,0a47.42,47.42,0,0,0,13.85-1.07,26.41,26.41,0,0,0,11.87-6.23,27.25,27.25,0,0,0,7.16-11.41,37.94,37.94,0,0,0,1.58-6.76,40.25,40.25,0,0,0,.38-6.89l0-.42.12-.29a32.47,32.47,0,0,0,1.9-7,25.47,25.47,0,0,0,.09-7.19,23.31,23.31,0,0,0-2-6.91,21.22,21.22,0,0,0-4-5.91l1.42-.09A33.38,33.38,0,0,1,352,34.35a37.17,37.17,0,0,1-6.42,3.32,34.13,34.13,0,0,1-6.92,1.9,32.15,32.15,0,0,1-7.13.29,32.84,32.84,0,0,0,13.59-3.25,37.46,37.46,0,0,0,6-3.58,33.54,33.54,0,0,0,5.1-4.59l.68-.78.75.68a23.18,23.18,0,0,1,4.83,6.38,25.8,25.8,0,0,1,2.57,7.56,28.16,28.16,0,0,1,.18,8A35.76,35.76,0,0,1,363.4,58l.1-.71a38.61,38.61,0,0,1-.21,7.62,40.56,40.56,0,0,1-1.59,7.42,29,29,0,0,1-21.48,20.35,48.82,48.82,0,0,1-15.05,1.21l.9-.16a50.28,50.28,0,0,1-6.76,2.14,55.42,55.42,0,0,1-6.9,1.25,39.62,39.62,0,0,1-14.13-.72,28.33,28.33,0,0,1-12.63-6.71,32.58,32.58,0,0,1-7.83-11.78,44.53,44.53,0,0,1-3.17-13.58,24.81,24.81,0,0,1,2.81-13.69,23.57,23.57,0,0,1,10.07-9.42A30.55,30.55,0,0,1,294,38.84a25.77,25.77,0,0,1,3.36-.62,16,16,0,0,1,1.7-.12,8,8,0,0,1,.85,0C300.14,38.17,300.47,38.15,300.66,38.38Z"/><path class="cls-7" d="M325.29,91.92S308,57.13,320.19,42c0,0,1.61-4.61-7.94-6"/><path class="cls-4" d="M323.5,92.81a117.85,117.85,0,0,1-4.65-12.5,95.2,95.2,0,0,1-3.08-12.92,52,52,0,0,1-.59-13.3c.46-4.41,1.82-8.91,4.75-12.33l-.05.1a3,3,0,0,0-.4-2.41,5.64,5.64,0,0,0-2-1.77A16.74,16.74,0,0,0,312.25,36a17,17,0,0,1,5.4,1.4,6,6,0,0,1,2.24,1.79,3.52,3.52,0,0,1,.61,2.89v0l-.05.06a21.27,21.27,0,0,0-3.77,12A49.94,49.94,0,0,0,318.05,67a92.38,92.38,0,0,0,3.8,12.33A111.82,111.82,0,0,0,327.08,91Z"/><path class="cls-7" d="M361.87,57.44s-22.64,1.77-37.2-14.75"/><path class="cls-4" d="M362,59.43a41.43,41.43,0,0,1-5.43-.31c-.89-.08-1.77-.24-2.65-.36l-2.61-.49a53.46,53.46,0,0,1-10.08-3.19,51.66,51.66,0,0,1-4.72-2.33c-.76-.43-1.49-.93-2.23-1.39l-1.1-.7-1-.8a41.79,41.79,0,0,1-7.5-7.17A41.48,41.48,0,0,0,332.72,49l1.09.68,1.13.57c.77.38,1.51.79,2.28,1.14A50.29,50.29,0,0,0,342,53.21a50.55,50.55,0,0,0,9.85,2.1l2.5.22c.84,0,1.67.1,2.51.1a41.06,41.06,0,0,0,4.89-.19Z"/><path class="cls-4" d="M317.73,37.51A13.19,13.19,0,0,1,322.08,35a5.77,5.77,0,0,1,2.95-.15A4.22,4.22,0,0,1,327.72,37l.22.37.15.34c.1.22.22.45.31.68a7.74,7.74,0,0,1,.39,1.56,4.64,4.64,0,0,1-.83,3.32,4.48,4.48,0,0,1-3,1.82,2.65,2.65,0,0,1-2.88-1.42l.24-.32a2.05,2.05,0,0,0,1.66-.91,3.46,3.46,0,0,0,.53-1.22c.09-.38.19-.73.31-1.22a3.74,3.74,0,0,0,.12-.8c0-.14,0-.3,0-.45l0-.23-.05-.16a1.32,1.32,0,0,0-.68-1,3.32,3.32,0,0,0-1.74-.39,14.37,14.37,0,0,0-4.47.89Z"/><path class="cls-7" d="M324.89,36.2s12.46-17,1.65-26.23"/><path class="cls-4" d="M323.27,35a36.23,36.23,0,0,0,3.8-5.7,27.49,27.49,0,0,0,2.58-6.41,15.21,15.21,0,0,0,.3-6.84,12.35,12.35,0,0,0-1.23-3.27A13.73,13.73,0,0,0,326.54,10a13.88,13.88,0,0,1,2.6,2.54,12.76,12.76,0,0,1,1.77,3.27,16.69,16.69,0,0,1,.71,7.46,30.37,30.37,0,0,1-1.81,7.3,40.19,40.19,0,0,1-3.31,6.84Z"/><path class="cls-8" d="M256.36,145.83s38.42-5.93,40.1,25.76-11.91,36.34-24.81,37.31c0,0,5.58,29-35.74,32.3,0,0-23.93,1-30.94-24.89,0,0-18.27,2.51-19-13.74,0,0-18.78-19.64,6.69-35.63,0,0-5.56-33.64,32.7-29.67C225.32,137.27,245.76,121,256.36,145.83Z"/><path class="cls-9" d="M205,216.31s6.41-25.08,26.65-33.57c0,0,18.65,3.42,14.27-8.28,0,0-4.5-7.27-11.76.2"/><path class="cls-4" d="M203,215.82a64.21,64.21,0,0,1,4.39-10.57,62.17,62.17,0,0,1,6.1-9.56,48,48,0,0,1,7.95-8.1,38.93,38.93,0,0,1,9.8-5.7l.26-.11.26.06a34.34,34.34,0,0,0,5.09.59,18.86,18.86,0,0,0,5.05-.4,5.31,5.31,0,0,0,3.81-2.62,6.69,6.69,0,0,0-.16-4.83l0,.06a7.68,7.68,0,0,0-2.35-2.33,5.5,5.5,0,0,0-3.19-.84,7.35,7.35,0,0,0-3.22,1.06,13.6,13.6,0,0,0-2.72,2.13,14.32,14.32,0,0,1,2.63-2.28,7.66,7.66,0,0,1,3.28-1.24,6,6,0,0,1,3.48.73,8.27,8.27,0,0,1,2.66,2.41l0,0v0a7.46,7.46,0,0,1,.42,5.45,5,5,0,0,1-1.82,2.25,8.62,8.62,0,0,1-2.55,1.2,20.31,20.31,0,0,1-5.4.73,35,35,0,0,1-5.4-.33l.52-.06a36.36,36.36,0,0,0-9,5.84,44.54,44.54,0,0,0-7.13,8,58.36,58.36,0,0,0-5.34,9.35,60,60,0,0,0-3.61,10Z"/><path class="cls-4" d="M242.25,182.61a20.08,20.08,0,0,1,9.88,2.74,41.34,41.34,0,0,1,8.33,6.25,73.33,73.33,0,0,1,7,7.75,84.64,84.64,0,0,1,6,8.63l-3.55,1.84a81.85,81.85,0,0,0-4.88-8.73,68.78,68.78,0,0,0-6-8.1,39.4,39.4,0,0,0-7.41-6.78A19.6,19.6,0,0,0,242.25,182.61Z"/><path class="cls-9" d="M256.36,145.83s-18,14-16,25.4"/><path class="cls-4" d="M257.59,147.41a65.22,65.22,0,0,0-5.94,4.71,56.17,56.17,0,0,0-5.38,5.42,31.38,31.38,0,0,0-4.31,6.28,13.82,13.82,0,0,0-1.63,7.41,14.28,14.28,0,0,1,.71-7.8,32.74,32.74,0,0,1,3.63-7.09,57.35,57.35,0,0,1,4.85-6.33,70.51,70.51,0,0,1,5.6-5.76Z"/><path class="cls-9" d="M192.62,166.94s21.81-1,30.4,7.4"/><path class="cls-4" d="M192.53,164.94a78.21,78.21,0,0,1,8.18.68,68.05,68.05,0,0,1,8,1.5,41.86,41.86,0,0,1,7.69,2.65,21.32,21.32,0,0,1,6.61,4.57,20.91,20.91,0,0,0-7-3.64,40.29,40.29,0,0,0-7.69-1.61,64.36,64.36,0,0,0-7.85-.48,77,77,0,0,0-7.79.32Z"/><path class="cls-3" d="M176.4,328.79s24,5.78,29.16-9.54-32-47.29-58.45-49.85-46,26.61-46,26.61-23.19,28.14,8.43,57.6S182.18,343.71,176.4,328.79Z"/><path class="cls-5" d="M147.11,269.4s-5.38,19.08-.14,29.7"/><path class="cls-4" d="M149,270c-.77,2.25-1.43,4.69-2,7.08a65.16,65.16,0,0,0-1.28,7.32,41.92,41.92,0,0,0-.28,7.43A24,24,0,0,0,147,299.1a24.62,24.62,0,0,1-2.48-7.19,43.66,43.66,0,0,1-.73-7.65,66,66,0,0,1,.32-7.7,77.13,77.13,0,0,1,1.1-7.7Z"/><path class="cls-5" d="M176.4,328.79s-23.23-14.27-27.14-24.45"/><path class="cls-4" d="M175.35,330.5c-2.59-1.82-5-3.69-7.49-5.62s-4.81-4-7.12-6.05a74.65,74.65,0,0,1-6.53-6.66,24.86,24.86,0,0,1-5-7.83,24.59,24.59,0,0,0,5.67,7.15,75.8,75.8,0,0,0,7.08,5.8q3.7,2.68,7.59,5.14c2.57,1.62,5.22,3.21,7.85,4.66Z"/><path class="cls-5" d="M152,309.29c.66-.62,2.18,8.18-9.24,9.23"/><path class="cls-4" d="M152,309.29c0-.13.23-.1.32,0a1.83,1.83,0,0,1,.26.21,2.87,2.87,0,0,1,.37.49,4,4,0,0,1,.47,1.08,5.64,5.64,0,0,1,.12,2.35,6.71,6.71,0,0,1-2.37,4.11,7.81,7.81,0,0,1-4.16,1.77,7.28,7.28,0,0,1-4.25-.75c1.2-.95,2.29-1.59,3.27-2.24a25.51,25.51,0,0,0,2.56-1.84,11.37,11.37,0,0,0,2-2.09,11.6,11.6,0,0,0,.88-1.4c.14-.26.26-.54.39-.83a4,4,0,0,0,.15-.45,1,1,0,0,0,.06-.23S152.1,309.29,152,309.29Z"/><path class="cls-5" d="M147.65,317.56a6,6,0,0,0,3.76,7.74c5.78,2.28,6.18-3.5,6.18-3.5"/><path class="cls-4" d="M149.53,318.26a2.62,2.62,0,0,0-.28.69,4.75,4.75,0,0,0-.19.83,4.2,4.2,0,0,0,2.31,4.4,4.93,4.93,0,0,0,3.76.89c1.26-.36,2.14-1.8,2.46-3.27a6.12,6.12,0,0,1-.43,2.29,4,4,0,0,1-1.61,1.89,4.56,4.56,0,0,1-2.55.52,6.38,6.38,0,0,1-1.25-.17,6.72,6.72,0,0,1-1.22-.34,7.13,7.13,0,0,1-4.16-3.4,7.75,7.75,0,0,1-.81-2.77,9.75,9.75,0,0,1,0-1.43,6.68,6.68,0,0,1,.24-1.52Z"/><path class="cls-5" d="M151.41,325.3s4,3.22-1.34,11.82"/><path class="cls-4" d="M151.41,325.3a3.84,3.84,0,0,1,2.91,2.58,6.68,6.68,0,0,1,.25,3.84,9.38,9.38,0,0,1-.59,1.74,9.8,9.8,0,0,1-1,1.5,7,7,0,0,1-3,2.16,9,9,0,0,1-.06-1.85,13.4,13.4,0,0,1,.14-1.61c.07-.51.13-1,.24-1.45s.2-.91.27-1.34c.21-.87.38-1.66.56-2.5a10.78,10.78,0,0,0,.21-1.36A6.58,6.58,0,0,0,151.41,325.3Z"/><path class="cls-4" d="M172.26,324.34a3.33,3.33,0,0,1,1.36,2.05,6,6,0,0,1,.16,1.5,13,13,0,0,1-.29,2.44,26.24,26.24,0,0,1-1.34,4.27,40.83,40.83,0,0,1-4.14,7.61,39.92,39.92,0,0,1-12.4,11.8,32.53,32.53,0,0,1-16.41,4.6,42.11,42.11,0,0,1-16.52-3.45l-.06,0h0a57.81,57.81,0,0,1-11-8.25A49.71,49.71,0,0,1,103,336.2a36.85,36.85,0,0,1-4.71-12.79,35.9,35.9,0,0,1,.44-13.55,35.69,35.69,0,0,0,0,13.47,36.37,36.37,0,0,0,5,12.41,48.77,48.77,0,0,0,8.75,10.15,56.93,56.93,0,0,0,10.94,7.65l-.08,0a40.29,40.29,0,0,0,15.8,2.78,30,30,0,0,0,15-4.73,38.18,38.18,0,0,0,14.57-18.29,21.4,21.4,0,0,0,1-3.66,9.39,9.39,0,0,0,.15-1.67,2.55,2.55,0,0,0-.07-.55c0-.12-.09,0,.3.32Z"/><path class="cls-5" d="M201.55,303.42c-.18.67,1.67,23.36-23.38,17.47"/><path class="cls-4" d="M203.48,304a1.14,1.14,0,0,0,.05-.32v.11l0,.25,0,.57-.11,1.17c-.09.77-.19,1.55-.35,2.32a23.44,23.44,0,0,1-1.32,4.55A15.45,15.45,0,0,1,195.8,320a15.85,15.85,0,0,1-8.85,2.32,31.2,31.2,0,0,1-8.78-1.43,30.93,30.93,0,0,0,8.73.43,14.37,14.37,0,0,0,7.74-2.95,12.92,12.92,0,0,0,4.21-6.74,21.07,21.07,0,0,0,.69-4c.05-.68.07-1.38.07-2.06l0-1,0-.53v-.47a3.59,3.59,0,0,1,.07-.59Z"/></svg>